<svg width="148" height="148" viewBox="0 0 148 148" fill="none" xmlns="http://www.w3.org/2000/svg">
<path fill-rule="evenodd" clip-rule="evenodd" d="M30.8332 29.2915C29.9817 29.2915 29.2915 29.9817 29.2915 30.8332V55.4998C29.2915 56.3513 29.9817 57.0415 30.8332 57.0415H55.4998C56.3513 57.0415 57.0415 56.3513 57.0415 55.4998V30.8332C57.0415 29.9817 56.3513 29.2915 55.4998 29.2915H30.8332ZM20.0415 30.8332C20.0415 24.8731 24.8731 20.0415 30.8332 20.0415H55.4998C61.4599 20.0415 66.2915 24.8731 66.2915 30.8332V55.4998C66.2915 61.4599 61.4599 66.2915 55.4998 66.2915H30.8332C24.8731 66.2915 20.0415 61.4599 20.0415 55.4998V30.8332Z" fill="white"/>
<path fill-rule="evenodd" clip-rule="evenodd" d="M30.8332 90.9587C29.9817 90.9587 29.2915 91.649 29.2915 92.5004V117.167C29.2915 118.019 29.9817 118.709 30.8332 118.709H55.4998C56.3513 118.709 57.0415 118.019 57.0415 117.167V92.5004C57.0415 91.649 56.3513 90.9587 55.4998 90.9587H30.8332ZM20.0415 92.5004C20.0415 86.5403 24.8731 81.7087 30.8332 81.7087H55.4998C61.4599 81.7087 66.2915 86.5403 66.2915 92.5004V117.167C66.2915 123.127 61.4599 127.959 55.4998 127.959H30.8332C24.8731 127.959 20.0415 123.127 20.0415 117.167V92.5004Z" fill="white"/>
<path fill-rule="evenodd" clip-rule="evenodd" d="M92.5004 90.9587C91.649 90.9587 90.9587 91.649 90.9587 92.5004V117.167C90.9587 118.019 91.649 118.709 92.5004 118.709H117.167C118.019 118.709 118.709 118.019 118.709 117.167V92.5004C118.709 91.649 118.019 90.9587 117.167 90.9587H92.5004ZM81.7087 92.5004C81.7087 86.5403 86.5403 81.7087 92.5004 81.7087H117.167C123.127 81.7087 127.959 86.5403 127.959 92.5004V117.167C127.959 123.127 123.127 127.959 117.167 127.959H92.5004C86.5403 127.959 81.7087 123.127 81.7087 117.167V92.5004Z" fill="white"/>
<path fill-rule="evenodd" clip-rule="evenodd" d="M81.7087 43.1665C81.7087 40.6122 83.7794 38.5415 86.3337 38.5415H123.334C125.888 38.5415 127.959 40.6122 127.959 43.1665C127.959 45.7208 125.888 47.7915 123.334 47.7915H86.3337C83.7794 47.7915 81.7087 45.7208 81.7087 43.1665Z" fill="white"/>
<path fill-rule="evenodd" clip-rule="evenodd" d="M104.834 20.0415C107.388 20.0415 109.459 22.1122 109.459 24.6665V61.6665C109.459 64.2208 107.388 66.2915 104.834 66.2915C102.279 66.2915 100.209 64.2208 100.209 61.6665V24.6665C100.209 22.1122 102.279 20.0415 104.834 20.0415Z" fill="white"/>
</svg>
