<svg width="44" height="44" viewBox="0 0 44 44" fill="none" xmlns="http://www.w3.org/2000/svg">
<path d="M27.5 18.3333L35.8472 14.1606C36.1266 14.021 36.4371 13.9551 36.7492 13.9691C37.0612 13.9832 37.3645 14.0768 37.6303 14.241C37.896 14.4051 38.1154 14.6345 38.2676 14.9073C38.4199 15.1801 38.4998 15.4873 38.5 15.7996V28.2003C38.4998 28.5127 38.4199 28.8199 38.2676 29.0926C38.1154 29.3654 37.896 29.5948 37.6303 29.759C37.3645 29.9232 37.0612 30.0167 36.7492 30.0308C36.4371 30.0449 36.1266 29.9789 35.8472 29.8393L27.5 25.6666V18.3333Z" stroke="white" stroke-width="2.75" stroke-linecap="round" stroke-linejoin="round"/>
<path d="M23.8333 11H9.16667C7.14162 11 5.5 12.6416 5.5 14.6667V29.3333C5.5 31.3584 7.14162 33 9.16667 33H23.8333C25.8584 33 27.5 31.3584 27.5 29.3333V14.6667C27.5 12.6416 25.8584 11 23.8333 11Z" stroke="white" stroke-width="2.75" stroke-linecap="round" stroke-linejoin="round"/>
</svg>
