<svg width="44" height="44" viewBox="0 0 44 44" fill="none" xmlns="http://www.w3.org/2000/svg">
<path d="M25.6666 5.5V12.8333C25.6666 13.3196 25.8598 13.7859 26.2036 14.1297C26.5474 14.4735 27.0137 14.6667 27.5 14.6667H34.8333" stroke="white" stroke-width="2.75" stroke-linecap="round" stroke-linejoin="round"/>
<path d="M31.1666 38.5H12.8333C11.8608 38.5 10.9282 38.1137 10.2406 37.4261C9.55293 36.7384 9.16663 35.8058 9.16663 34.8333V9.16667C9.16663 8.19421 9.55293 7.26158 10.2406 6.57394C10.9282 5.88631 11.8608 5.5 12.8333 5.5H25.6666L34.8333 14.6667V34.8333C34.8333 35.8058 34.447 36.7384 33.7594 37.4261C33.0717 38.1137 32.1391 38.5 31.1666 38.5Z" stroke="white" stroke-width="2.75" stroke-linecap="round" stroke-linejoin="round"/>
<path d="M22 20.1667V31.1667" stroke="white" stroke-width="2.75" stroke-linecap="round" stroke-linejoin="round"/>
<path d="M16.5 25.6667L22 31.1667L27.5 25.6667" stroke="white" stroke-width="2.75" stroke-linecap="round" stroke-linejoin="round"/>
</svg>
