<svg width="215" height="42" viewBox="0 0 215 42" fill="none" xmlns="http://www.w3.org/2000/svg">
<path d="M29.2267 0.134521H12.3794C5.55237 0.134521 0 5.6869 0 12.5096V29.3569C0 36.1796 5.55237 41.732 12.3794 41.732H29.2267C36.0494 41.732 41.6018 36.1796 41.6018 29.3569V12.5096C41.6018 5.6869 36.0494 0.134521 29.2267 0.134521Z" fill="#DA0022"/>
<path d="M33.9319 26.0469L33.9189 26.2327C33.8584 26.9543 33.409 27.6846 32.6572 27.6846C32.0825 27.6846 31.6202 27.4728 31.2443 27.0364C30.7949 26.5136 30.3844 25.8914 29.9739 24.755C31.1406 20.797 34.7399 8.11514 34.7399 8.11514H27.9085C27.9085 8.11514 27.2777 11.0879 26.7073 13.7928C26.6771 13.728 26.6468 13.6589 26.6209 13.5984C26.0505 12.3842 25.1431 11.0318 24.132 10.0812C22.3734 8.42625 20.3037 7.62256 17.8062 7.62256C14.3581 7.62256 11.4415 8.89723 9.13414 11.412C6.83974 13.9138 5.62988 17.1242 5.62988 20.689C5.62988 24.6642 6.77925 27.9265 9.05205 30.3895C11.4199 32.9604 14.2501 34.1573 17.9574 34.1573C20.1179 34.1573 22.179 33.5178 24.0888 32.2518C25.3246 31.4351 26.4524 30.3074 27.5153 28.8426C27.9604 30.2901 28.4141 31.2796 28.9542 32.0184C29.827 33.2153 31.1319 33.898 32.5362 33.898C33.9967 33.898 35.3318 33.1505 36.0145 31.945C36.6195 30.8777 36.8658 29.5512 36.8658 27.3691V26.0469H33.9319ZM22.4858 28.5833C21.4487 30.1 20.1006 30.8993 18.5753 30.8993C16.7994 30.8993 15.46 30.1043 14.4705 28.4623C13.4335 26.7426 12.9106 24.163 12.9106 20.8013C12.9106 17.7162 13.468 15.2663 14.5612 13.512C15.5896 11.87 16.8815 11.1009 18.6229 11.1009C20.1698 11.1009 21.3796 11.7447 22.4339 13.1317C23.5617 14.6181 24.5123 17.0767 25.195 20.2396C24.3438 24.513 23.5055 27.0969 22.4858 28.5833Z" fill="white"/>
<path d="M64.5673 18.3385L62.4285 8.71587C61.9575 6.58998 60.618 5.10791 57.6712 5.10791C54.9058 5.10791 53.3891 6.58998 52.9138 8.71587L50.7793 18.3385H53.0651C53.5879 18.3385 54.1021 17.9237 54.2144 17.4139L54.6465 15.4565H60.7001L61.1322 17.4139C61.2445 17.9237 61.7631 18.3385 62.2816 18.3385H64.5673ZM55.2428 12.7473L55.9946 9.33808C56.1156 8.78933 56.5477 7.94675 57.6712 7.94675C58.7989 7.94675 59.2267 8.78933 59.3477 9.33808L60.0995 12.7473H55.2428ZM95.7211 17.4182C95.8335 17.9281 96.352 18.3429 96.8705 18.3429H99.1519L97.0174 8.72019C96.5421 6.5943 95.2069 5.11223 92.2644 5.11223C89.499 5.11223 87.9824 6.5943 87.5071 8.72019L85.3682 18.3429H87.654C88.1725 18.3429 88.6953 17.9281 88.8033 17.4182L89.2354 15.4608H95.289L95.7211 17.4182ZM89.836 12.7473L90.5835 9.33808C90.7089 8.78933 91.1366 7.94675 92.2601 7.94675C93.3835 7.94675 93.8113 8.78933 93.9366 9.33808L94.6884 12.7473H89.836ZM142.365 23.2514H141.285C137.383 23.2514 134.661 26.0298 134.661 30.0093C134.661 33.9889 137.383 36.7672 141.285 36.7672H142.365C146.267 36.7672 148.989 33.9889 148.989 30.0093C148.989 26.0298 146.267 23.2514 142.365 23.2514ZM142.175 34.1012H141.475C139.302 34.1012 138.066 32.3297 138.066 30.0093C138.066 27.6933 139.302 25.9218 141.475 25.9218H142.175C144.349 25.9218 145.58 27.6933 145.58 30.0093C145.584 32.3253 144.349 34.1012 142.175 34.1012ZM62.3377 25.5026C62.4501 26.0255 62.9643 26.4489 63.4871 26.4489H66.4296V36.4691H69.5839V26.4489H72.4314C72.9499 26.4489 73.4684 26.0255 73.5764 25.5026L73.9912 23.5496H61.9229L62.3377 25.5026ZM195.668 36.4691H198.822V23.515H195.668V36.4691ZM129.511 28.6785H123.375V23.5496H120.221V36.4691H123.375V31.4525H129.511V36.4691H132.665V23.5496H129.511V28.6785ZM96.6458 23.2385C93.8804 23.2385 92.3638 24.7205 91.8928 26.8464L89.7539 36.4691H92.0397C92.5625 36.4691 93.0767 36.0543 93.1891 35.5487L93.6212 33.587H99.6704L100.103 35.5487C100.211 36.0586 100.733 36.4691 101.252 36.4691H103.538L101.399 26.8464C100.928 24.7205 99.5927 23.2385 96.6458 23.2385ZM94.2218 30.8735L94.9736 27.4643C95.0946 26.9156 95.5224 26.073 96.6501 26.073C97.7779 26.073 98.2056 26.9156 98.3266 27.4686L99.0785 30.8735H94.2218ZM170.024 23.2385C167.258 23.2385 165.742 24.7205 165.266 26.8464L163.132 36.4691H165.417C165.936 36.4691 166.454 36.0543 166.567 35.5487L166.999 33.587H173.048L173.48 35.5487C173.593 36.0586 174.111 36.4691 174.63 36.4691H176.915L174.777 26.8464C174.306 24.7205 172.966 23.2385 170.024 23.2385ZM167.595 30.8735L168.347 27.4643C168.472 26.9156 168.9 26.073 170.024 26.073C171.147 26.073 171.579 26.9156 171.7 27.4686L172.452 30.8735H167.595ZM161.014 23.5409C160.496 23.5409 159.977 23.9557 159.865 24.4613L157.411 32.7488C157.234 33.2932 156.974 33.9327 156.408 33.9327C155.838 33.9327 155.596 33.3321 155.415 32.7488L152.952 24.4613C152.839 23.9514 152.321 23.5409 151.802 23.5409H149.516L152.269 33.1636C152.874 35.3716 153.639 36.7716 156.413 36.7716C158.949 36.7716 159.874 35.3327 160.556 33.1636L163.305 23.5409H161.014ZM88.1854 28.1816C88.1854 25.4335 86.1114 23.5496 83.3633 23.5496H76.6313C76.1085 23.5496 75.685 23.973 75.685 24.4958V36.4691H78.8393V32.7056H82.322L84.0763 35.6697C84.4651 36.279 84.9015 36.4648 85.5281 36.4648H88.6867L85.7744 32.2346C87.3342 31.5433 88.1854 30.1001 88.1854 28.1816ZM83.3633 29.8062H78.8393V26.4532H83.3633C84.1324 26.4532 85.0312 26.9501 85.0312 28.1816C85.0312 29.413 84.1324 29.8062 83.3633 29.8062ZM212.801 33.7426H206.008V31.2624H213.393V28.7692H206.008V26.2761H212.801C213.358 26.2761 213.803 26.0298 213.954 25.3557L214.373 23.5496H203.796C203.277 23.5496 202.85 23.973 202.85 24.4958V35.5271C202.85 36.0456 203.277 36.4734 203.796 36.4734H214.373L213.954 34.6673C213.803 33.9889 213.362 33.7426 212.801 33.7426ZM80.1874 18.3515V13.1275H81.7862H82.1621C82.7325 13.1275 83.1818 12.8769 83.3417 12.1856L83.6917 10.6387H81.7862V10.6344H80.1874V8.14119H84.4392C84.9966 8.14119 85.4417 7.8949 85.5972 7.22083L86.0163 5.41469H77.9794C77.4609 5.41469 77.0332 5.83814 77.0332 6.36097L77.0461 18.3385L80.1874 18.3515ZM67.7518 18.3904H76.2511L75.8319 16.5843C75.6764 15.9059 75.2357 15.6596 74.6739 15.6596H69.9598V8.19736L69.9814 5.47087H66.8056V17.4484C66.8056 17.9626 67.2333 18.3904 67.7518 18.3904ZM188.56 32.0704L183.094 24.31C182.788 23.8909 182.109 23.5496 181.586 23.5496H179.249V36.4691H182.403V27.9439L187.869 35.7043C188.176 36.1234 188.854 36.4648 189.373 36.4648H191.71V23.5452H188.556V32.0704H188.56ZM118.432 23.5496H115.533C114.906 23.5496 114.465 23.7397 114.081 24.3446L111.406 28.5921H108.649V23.5107H105.495V36.4648H108.649V31.3661H111.367L114.081 35.6697C114.465 36.279 114.906 36.4648 115.533 36.4648H118.523L114.029 29.9359L118.432 23.5496ZM57.4551 28.7692C54.7675 28.4711 54.5644 27.9223 54.5644 27.2915C54.5644 26.639 55.1175 26.2717 56.673 26.2717C56.6773 26.2717 56.6817 26.2717 56.686 26.2717H59.1662C59.7279 26.2717 60.281 25.8483 60.402 25.3255L60.8081 23.5409H57.1915L57.1872 23.5452C57.0317 23.5409 56.8761 23.5366 56.7076 23.5366C52.8447 23.5366 51.2892 25.3989 51.2892 27.4643C51.2892 29.3266 52.2959 30.692 55.0786 31.2451C57.2347 31.6686 57.5372 31.984 57.5372 32.5976C57.5372 33.2284 57.1397 33.721 55.3595 33.721C55.3508 33.721 55.3465 33.721 55.3379 33.721H52.4342C51.8725 33.721 51.3194 34.1488 51.1984 34.6802L50.7923 36.4907H55.0613C55.0872 36.4907 55.1132 36.495 55.1391 36.495C55.165 36.495 55.191 36.4907 55.2169 36.4907H56.0249V36.4561C59.3606 36.1969 60.9162 34.4642 60.9162 32.4723C60.9248 30.718 60.039 29.0544 57.4551 28.7692Z" fill="#DA0022"/>
</svg>
