<svg width="205" height="44" viewBox="0 0 205 44" fill="none" xmlns="http://www.w3.org/2000/svg">
<path d="M30.209 0H12.7955C5.73899 0 0 5.87307 0 13.0899V30.9102C0 38.1269 5.73899 44 12.7955 44H30.209C37.261 44 43 38.1269 43 30.9102V13.0944C43 5.87763 37.2565 0 30.209 0Z" fill="#DA0022"/>
<path d="M34.9943 27.4386L34.9766 27.6346C34.9146 28.396 34.4543 29.1664 33.684 29.1664C33.0953 29.1664 32.6217 28.943 32.2365 28.4826C31.7718 27.931 31.3556 27.2745 30.9351 26.0755C32.1303 21.8997 35.8177 8.5197 35.8177 8.5197H28.8192C28.8192 8.5197 28.1729 11.6561 27.5886 14.5099C27.5576 14.4415 27.5266 14.3732 27.5001 14.3048C26.9158 13.0238 25.9862 11.5969 24.9503 10.5939C23.1487 8.84793 21.0284 8 18.4698 8C14.9373 8 11.9494 9.34484 9.58998 12.0026C7.23945 14.6421 6 18.0247 6 21.7903C6 25.9844 7.17748 29.4262 9.50145 32.0247C11.9272 34.7372 14.8267 36 18.6247 36C20.838 36 22.9495 35.3207 24.9061 33.9896C26.1721 33.128 27.3274 31.9381 28.4164 30.3881C28.8767 31.9153 29.3371 32.9593 29.8904 33.7388C30.7846 35.0016 32.1215 35.7219 33.5601 35.7219C35.0563 35.7219 36.4241 34.9332 37.1235 33.6613C37.7433 32.5353 38 31.1358 38 28.8336V27.4386H34.9943ZM23.2682 30.1146C22.2058 31.7148 20.8247 32.5581 19.2621 32.5581C17.4428 32.5581 16.0705 31.7193 15.0569 29.987C13.9945 28.1726 13.4588 25.451 13.4588 21.9043C13.4588 18.6493 14.0299 16.0645 15.1498 14.2136C16.2033 12.4813 17.5269 11.6698 19.3108 11.6698C20.8956 11.6698 22.135 12.3491 23.2151 13.8124C24.3705 15.3852 25.3443 17.9792 26.0437 21.3116C25.1717 25.8203 24.3129 28.5464 23.2682 30.1146Z" fill="white"/>
<path d="M64.1439 9.62385C63.6627 7.45153 62.2939 5.93709 59.2871 5.93709C56.4613 5.93709 54.9116 7.45594 54.4259 9.62385L52.2448 19.4567H54.576C55.1103 19.4567 55.6401 19.0328 55.7505 18.5118L56.192 16.5117H62.3778L62.8193 18.5118C62.9341 19.0328 63.4596 19.4567 63.9938 19.4567H66.3295L64.1439 9.62385ZM56.8057 13.7389L57.574 10.2552C57.6976 9.69007 58.1347 8.83351 59.2871 8.83351C60.4351 8.83351 60.8722 9.69449 61.0002 10.2552L61.7685 13.7389H56.8057Z" fill="#DA0022"/>
<path d="M72.0826 9.21764H77.2882V19.4567H80.5114V6.25499H70.7934C69.7293 6.25499 68.8595 7.1248 68.8595 8.18888V14.856C68.8595 15.7478 68.4489 16.3174 67.7336 16.4587L67.0713 16.6177L67.6674 19.4523H68.2811C70.4843 19.4523 72.0782 17.8098 72.0782 15.0193V9.21764" fill="#DA0022"/>
<path d="M108.518 6.25057H107.343V4.71405H105.087C104.553 4.71405 104.12 5.14675 104.12 5.681V6.25057H102.945C98.9629 6.25057 96.4727 8.96597 96.4727 12.8514C96.4727 16.7369 98.9629 19.4523 102.945 19.4523H104.12V21.0506H106.376C106.906 21.0506 107.343 20.6179 107.343 20.0836V19.4478H108.518C112.5 19.4478 114.99 16.7324 114.99 12.847C114.99 8.96596 112.5 6.25057 108.518 6.25057ZM102.945 16.5382C100.738 16.5382 99.6958 15.1429 99.6958 12.8514C99.6958 10.5643 100.742 9.16907 102.945 9.16907H104.12V16.5382H102.945ZM108.518 16.5382H107.343V9.16907H108.518C110.725 9.16907 111.767 10.5643 111.767 12.8514C111.763 15.1429 110.725 16.5382 108.518 16.5382Z" fill="#DA0022"/>
<path d="M90.512 9.60177H85.8892V6.25499H82.666V18.4897C82.666 19.0196 83.1031 19.4567 83.633 19.4567H90.512C93.3245 19.4567 95.435 17.3418 95.435 14.5292C95.435 11.7167 93.6601 9.60177 90.512 9.60177ZM90.512 16.4896H85.8892V12.5644H90.512C91.2979 12.5644 92.2163 13.2665 92.2163 14.5292C92.2119 15.7876 91.2979 16.4896 90.512 16.4896Z" fill="#DA0022"/>
<path d="M127.009 9.62385C126.527 7.45153 125.154 5.93709 122.147 5.93709C119.322 5.93709 117.772 7.45594 117.286 9.62385L115.105 19.4567H117.441C117.971 19.4567 118.5 19.0328 118.615 18.5118L119.057 16.5117H125.243L125.684 18.5118C125.799 19.0328 126.329 19.4567 126.859 19.4567H129.19L127.009 9.62385ZM119.67 13.7389L120.434 10.2552C120.562 9.69007 121 8.83351 122.147 8.83351C123.3 8.83351 123.733 9.69449 123.861 10.2552L124.629 13.7389H119.67Z" fill="#DA0022"/>
<path d="M145.69 31.1307C146.26 30.5699 146.626 29.8105 146.626 28.7508C146.626 26.4107 144.811 24.7771 142.471 24.7771H134.59C134.06 24.7771 133.623 25.2098 133.623 25.744V37.0162C133.623 37.5461 134.06 37.9832 134.59 37.9832H142.966C145.434 37.9832 147.072 36.2171 147.072 33.877C147.076 32.6981 146.516 31.7753 145.69 31.1307ZM142.467 27.5146C142.895 27.5146 143.482 27.9958 143.482 28.8171C143.482 29.6427 142.895 30.0666 142.467 30.1196H136.78V27.519H142.467V27.5146ZM142.727 35.2413H136.784V32.6363H142.727C143.156 32.6893 143.743 33.1087 143.743 33.9388C143.743 34.76 143.156 35.2413 142.727 35.2413Z" fill="#DA0022"/>
<path d="M124.404 24.4724C120.421 24.4724 117.635 27.3115 117.635 31.3779C117.635 35.4444 120.421 38.2834 124.404 38.2834H125.508C129.495 38.2834 132.276 35.4444 132.276 31.3779C132.276 27.3115 129.495 24.4724 125.508 24.4724H124.404ZM121.114 31.3779C121.114 29.0113 122.373 27.2011 124.598 27.2011H125.313C127.534 27.2011 128.793 29.0113 128.793 31.3779C128.793 33.7445 127.534 35.5592 125.313 35.5592H124.598C122.377 35.5592 121.114 33.7445 121.114 31.3779Z" fill="#DA0022"/>
<path d="M64.2544 24.7771L64.6783 26.7728C64.7886 27.307 65.3185 27.7397 65.8527 27.7397H68.8595V37.9788H72.0827V27.7397H74.9924C75.5222 27.7397 76.052 27.307 76.1624 26.7728L76.5863 24.7771H64.2544Z" fill="#DA0022"/>
<path d="M172.822 24.7771V30.018H166.552V24.7771H163.329V37.9788H166.552V32.8526H172.822V37.9788H176.045V24.7771H172.822Z" fill="#DA0022"/>
<path d="M101.766 28.1459C101.281 25.9736 99.9165 24.4592 96.9097 24.4592C94.0839 24.4592 92.5341 25.9736 92.0529 28.1459L89.8673 37.9788H92.203C92.7372 37.9788 93.2627 37.5549 93.3775 37.0339L93.819 35.0338H100L100.442 37.0339C100.552 37.5549 101.087 37.9788 101.616 37.9788H103.948L101.766 28.1459ZM94.4283 32.261L95.1966 28.7773C95.3202 28.2166 95.7573 27.3556 96.9097 27.3556C98.0577 27.3556 98.4992 28.2166 98.6228 28.7817L99.3911 32.261H94.4283Z" fill="#DA0022"/>
<path d="M159.721 28.1459C159.236 25.9736 157.871 24.4592 154.86 24.4592C152.034 24.4592 150.485 25.9736 150.003 28.1459L147.822 37.9788H150.158C150.688 37.9788 151.218 37.5549 151.332 37.0339L151.774 35.0338H157.955L158.397 37.0339C158.512 37.5549 159.041 37.9788 159.571 37.9788H161.907L159.721 28.1459ZM152.379 32.261L153.147 28.7773C153.275 28.2166 153.712 27.3556 154.86 27.3556C156.008 27.3556 156.45 28.2166 156.573 28.7817L157.342 32.261H152.379Z" fill="#DA0022"/>
<path d="M65.2567 37.9434V37.9832H58.9605C55.1501 37.9832 52.4833 35.2678 52.4833 31.3823C52.4833 27.4969 55.1457 24.7815 58.9605 24.7815H63.7378L63.2698 26.8037C63.1506 27.3247 62.6163 27.7441 62.0865 27.7441H58.9605C56.925 27.7441 55.7108 29.263 55.7108 31.3823C55.7108 33.4973 56.925 35.0205 58.9605 35.0205H63.6142C64.144 35.0205 64.6783 35.4444 64.7975 35.961L65.2567 37.9434Z" fill="#DA0022"/>
<path d="M85.227 24.7771H78.348C77.8138 24.7771 77.3811 25.2142 77.3811 25.744V37.9788H80.6043V34.632H85.227C88.3796 34.632 90.1545 32.5126 90.1545 29.7045C90.1545 26.8964 88.0352 24.7771 85.227 24.7771ZM85.227 31.6649H80.6043V27.7441H85.227C86.013 27.7441 86.9313 28.4462 86.9313 29.7045C86.9313 30.9629 86.013 31.6649 85.227 31.6649Z" fill="#DA0022"/>
<path d="M203.367 35.1927H196.426V32.6583H203.972V30.1107H196.426V27.5631H203.367C203.936 27.5631 204.391 27.3114 204.546 26.6227L204.974 24.7771H194.165C193.635 24.7771 193.198 25.2098 193.198 25.744V37.0162C193.198 37.5461 193.635 37.9832 194.165 37.9832H204.974L204.546 36.1376C204.391 35.4444 203.941 35.1927 203.367 35.1927Z" fill="#DA0022"/>
<path d="M178.257 37.9788V24.7771H181.48V33.4884L187.065 25.5542C187.379 25.1259 188.072 24.7771 188.606 24.7771H190.995V37.9788H187.772V29.2674L182.186 37.1973C181.873 37.6255 181.18 37.9743 180.65 37.9743H178.257" fill="#DA0022"/>
<path d="M113.675 31.3073L118.174 24.7771H115.211C114.571 24.7771 114.121 24.9713 113.728 25.5939L111.33 29.3557H110.902L108.504 25.5939C108.111 24.9713 107.661 24.7771 107.021 24.7771H103.965L108.562 31.4486L104.063 37.9788H107.021C107.665 37.9788 108.111 37.7845 108.504 37.1619L110.902 33.3957H111.33L113.728 37.1619C114.125 37.7845 114.571 37.9788 115.211 37.9788H118.267L113.675 31.3073Z" fill="#DA0022"/>
</svg>
