<svg width="187" height="32" viewBox="0 0 187 32" fill="none" xmlns="http://www.w3.org/2000/svg">
<path d="M6.2678 14.4107L25.0712 0H31.339L18.8034 14.4107H31.2816V16.9178H18.8034L31.339 31.3286H25.0712L6.2678 16.9178H0L2.50712 14.4107H6.2678ZM152.919 11.6529H165.24V7.83476H148.437V23.5199H165.245V19.7227H152.919V17.3305H164.143V14.0294H152.919V11.6529ZM125.769 12.9639C125.769 8.88984 124.197 7.82953 119.757 7.82953H106.558V23.5147H111.06V19.5033H119.156C120.629 19.5033 121.172 19.7801 121.172 21.1173V23.5147H125.649V20.3025C125.649 18.7042 124.86 17.7118 123.329 17.3253C125.168 16.8499 125.769 15.5546 125.769 12.9639ZM111.055 11.7365H119.595C120.744 11.7365 121.209 12.2953 121.209 13.5071C121.209 14.9957 120.843 15.5755 119.595 15.5755H111.055V11.7365ZM186.65 12.9639C186.65 8.88984 185.078 7.82953 180.633 7.82953H167.434V23.5147H171.931V19.5033H180.027C181.5 19.5033 182.048 19.7801 182.048 21.1173V23.5147H186.53V20.3025C186.53 18.7042 185.746 17.7118 184.211 17.3253C186.044 16.8499 186.65 15.5546 186.65 12.9639ZM171.936 11.7365H180.476C181.625 11.7365 182.09 12.2953 182.09 13.5071C182.09 14.9957 181.725 15.5755 180.476 15.5755H171.936V11.7365ZM125.649 23.5147H130.804L132.319 20.9031H141.757L143.251 23.5147H148.448L140.143 7.82953H134.115L125.649 23.5147ZM140.049 17.132H134.105L137.046 11.585L140.049 17.132ZM100.212 18.5109C100.212 19.4354 99.7678 19.9577 98.9791 19.9577H90.7056V17.132H98.9791C99.7208 17.132 100.212 17.67 100.212 18.5109ZM99.7208 12.6453C99.7208 13.4862 99.3186 13.9406 98.5717 13.9406H90.7056V11.35H98.5717C99.2611 11.35 99.7208 11.867 99.7208 12.6453ZM86.2241 23.5147H100.128C103.377 23.5147 104.829 22.2873 104.829 19.2631C104.829 17.0171 104.019 15.8575 102.165 15.5285C103.638 14.9226 104.322 13.8884 104.322 12.2066C104.322 9.25024 102.729 7.82431 99.4387 7.82431H86.2241V23.5147ZM58.2122 23.5147H62.6833V12.3424H62.793L68.8048 23.5147H73.2341L79.2877 12.3528H79.4758V23.5147H83.9625V7.83476H76.2949L71.0194 17.6282L65.744 7.83476H58.207V23.5147H58.2122ZM43.65 11.6529H55.9767V7.83476H39.1738V23.5199H55.9819V19.7227H43.6553V17.3305H54.8799V14.0294H43.6553V11.6529H43.65Z" fill="#006BB6"/>
</svg>
