<svg width="278" height="30" viewBox="0 0 278 30" fill="none" xmlns="http://www.w3.org/2000/svg">
<path d="M49.9634 24.9717H63.1846V20.9462H54.5903V4.98688H49.9634V24.9717ZM73.8364 24.9717H77.8882V10.5845H73.5779V18.8095C73.5779 20.7246 72.6072 21.5793 71.035 21.5793C69.294 21.5793 68.4656 20.7246 68.4656 18.8095V10.5845H64.1553V19.0047C64.1553 23.7424 66.0704 25.399 69.7529 25.399C72.011 25.399 73.235 24.4283 73.8364 23.3151V24.9717ZM85.5118 14.0982H88.6826V10.5845H85.5118V10.0147C85.5118 8.75909 86.224 8.30009 87.5694 8.30009C88.0811 8.30009 88.6826 8.35813 88.6826 8.35813V4.87609C88.6826 4.87609 87.9703 4.70199 86.8571 4.70199C83.4015 4.70199 81.2015 6.55907 81.2015 10.0411V10.5845H79.0331V14.0982H81.2015V24.9769H85.5118V14.0982ZM97.5037 25.2302C98.5589 25.2302 99.5613 25.0033 99.5613 25.0033V21.5477C99.5613 21.5477 98.849 21.6321 98.332 21.6321C97.0764 21.6321 96.2745 21.2311 96.2745 19.6906V14.0929H99.556V10.5792H96.2745V6.38497H91.9641V10.5845H89.7958V14.0982H91.9641V20.1812C91.9641 23.658 94.0481 25.2302 97.5037 25.2302ZM110.361 24.9717H114.671V16.5462C114.671 11.8085 112.756 10.1519 109.105 10.1519C107.079 10.1519 105.908 10.9222 105.164 11.9773V5.01326H100.822V24.9717H105.133V16.7467C105.133 14.8315 106.103 13.9769 107.728 13.9769C109.527 13.9769 110.356 14.8315 110.356 16.7467V24.9717H110.361ZM125.666 19.3793C125.666 20.9515 124.178 22.1227 121.899 22.1227C120.786 22.1227 120.132 21.611 120.132 20.6402C120.132 19.8963 120.591 19.2685 122.042 19.068L124.526 18.7251C124.954 18.6671 125.413 18.5827 125.671 18.4982V19.3793H125.666ZM125.835 24.9717H129.776V15.5227C129.776 11.5553 127.465 10.1519 123.266 10.1519C119.013 10.1519 116.956 11.7821 116.787 14.8368H120.981C121.039 14.0349 121.493 13.4387 123.266 13.4387C124.838 13.4387 125.576 13.9505 125.576 14.7208C125.576 15.4066 125.149 15.6651 124.094 15.7759L121.35 16.0608C117.641 16.4618 115.953 18.0023 115.953 20.7985C115.953 23.3942 117.552 25.3937 120.949 25.3937C123.26 25.3937 124.632 24.6498 125.83 23.1673V24.9717H125.835ZM141.087 24.9717H145.398V16.5462C145.398 11.8085 143.488 10.1519 139.747 10.1519C137.436 10.1519 136.207 11.1227 135.606 12.2358V10.5792H131.549V24.9717H135.859V16.7467C135.859 14.8315 136.83 13.9769 138.455 13.9769C140.254 13.9769 141.082 14.8315 141.082 16.7467V24.9717H141.087ZM151.407 14.61C151.407 13.9821 151.95 13.4968 153.375 13.4968C154.831 13.4968 155.29 14.0138 155.432 14.8368H159.626C159.426 11.7241 157.316 10.1519 153.375 10.1519C149.122 10.1519 147.091 12.1778 147.091 14.9212C147.091 17.7754 148.917 19.0047 152.087 19.4321L153.601 19.6325C155.084 19.833 155.659 20.1759 155.659 20.9146C155.659 21.7165 154.973 22.1122 153.29 22.1122C151.634 22.1122 150.89 21.6004 150.779 20.54H146.527C146.611 23.4258 148.352 25.3937 153.295 25.3937C157.833 25.3937 159.975 23.5947 159.975 20.5664C159.975 17.5697 158.149 16.4248 154.493 15.9395L152.979 15.739C151.75 15.5807 151.407 15.2378 151.407 14.61ZM170.769 19.3793C170.769 20.9515 169.281 22.1227 167.002 22.1227C165.889 22.1227 165.229 21.611 165.229 20.6402C165.229 19.8963 165.688 19.2685 167.139 19.068L169.624 18.7251C170.051 18.6671 170.51 18.5827 170.764 18.4982V19.3793H170.769ZM174.879 24.9717V15.5227C174.879 11.5553 172.568 10.1519 168.368 10.1519C164.116 10.1519 162.059 11.7821 161.884 14.8368H166.084C166.142 14.0349 166.596 13.4387 168.368 13.4387C169.941 13.4387 170.679 13.9505 170.679 14.7208C170.679 15.4066 170.252 15.6651 169.197 15.7759L166.453 16.0608C162.739 16.4618 161.056 18.0023 161.056 20.7985C161.056 23.3942 162.655 25.3937 166.052 25.3937C168.363 25.3937 169.735 24.6498 170.932 23.1673V24.9664H174.879V24.9717Z" fill="#0E1E62"/>
<path d="M27.7889 11.9088C25.0508 11.397 22.7664 11.2334 21.1414 11.2176C19.7803 11.1965 18.551 11.2387 17.3112 11.4023C16.0977 14.0455 14.1774 15.5807 12.0143 15.5385C11.2071 15.5227 10.2363 15.2483 8.73799 14.4517C8.73799 14.4517 7.28186 13.6603 7.11304 13.5548C7.29242 13.4176 7.40321 13.3227 7.41903 13.3121C7.42959 13.3121 10.5423 14.6522 10.5423 14.6522L10.9011 14.3673L4.80751 11.6133L4.21134 12.0829L2.34898 11.2915L2.37008 11.9984C5.06602 13.1749 6.28473 13.845 9.89867 16.2613C13.0114 18.2872 15.4277 19.4373 18.952 20.5242C19.87 20.809 21.3683 21.1678 22.0436 21.2786L23.0407 20.3078C22.2019 20.3342 21.0623 20.2656 19.8488 19.9227C17.3745 19.2316 15.7548 17.844 15.1481 17.1846C16.7942 16.1716 18.2133 15.8076 19.105 15.6651C19.8014 15.5491 20.445 15.5174 20.8513 15.5069C22.0278 15.4858 23.1673 15.5649 23.9323 15.6546L24.5443 15.0584C23.5261 14.9212 22.3707 14.821 21.0939 14.8157C20.1232 14.8104 19.258 14.8579 18.4455 14.9371C18.5404 14.8316 18.8464 14.4939 18.9678 14.3567C19.622 14.3145 20.5347 14.2881 21.4052 14.3092C22.7242 14.3409 23.9271 14.4517 25.0086 14.6047L25.6259 14.0032C24.5338 13.8344 23.1146 13.6762 21.764 13.6339C20.7141 13.597 19.8172 13.6234 19.5059 13.6392C19.6009 13.5126 19.87 13.1749 19.9069 13.1169C20.387 13.1011 21.6585 13.1116 22.4393 13.1591C23.9429 13.2435 24.9611 13.386 26.0638 13.5759L26.681 12.9745C25.6628 12.7951 24.4124 12.6104 22.74 12.4944C21.727 12.4258 20.5875 12.4311 20.3237 12.4311C20.4292 12.257 20.5927 11.9932 20.6191 11.9457C20.9937 11.9088 22.4234 11.9826 23.0302 12.0143C24.634 12.1092 26.8446 12.4522 27.14 12.5313L27.7889 11.9088ZM29.3031 15.1798C29.1976 23.0724 22.6925 29.4086 14.7999 29.3084C6.90728 29.2029 0.571029 22.6978 0.67127 14.8052C0.776786 6.91256 7.28186 0.571029 15.1798 0.676545C23.0724 0.776786 29.4086 7.28714 29.3031 15.1798ZM29.9784 15.185C30.0839 6.92311 23.4522 0.106758 15.185 0.00124188C6.92311 -0.104274 0.112034 6.52742 0.00124188 14.7946C-0.104274 23.0565 6.52742 29.8729 14.7946 29.9784C23.0565 30.0892 29.8729 23.4522 29.9784 15.185Z" fill="#0E1E62"/>
<path d="M197.116 4.98688V9.01232H191.519V24.9717H186.897V9.01232H181.299V4.98688H197.116Z" fill="#0E1E62"/>
<path d="M208.792 18.9467H198.514C198.715 21.115 199.628 21.9433 201.77 21.9433C203.4 21.9433 204.054 21.4843 204.313 20.5453H208.565C208.306 23.3414 206.054 25.399 201.77 25.399C196.346 25.399 194.23 22.3443 194.23 17.7755C194.23 13.9188 195.971 10.1519 201.537 10.1519C206.761 10.1519 208.844 13.1802 208.844 17.7491C208.85 18.092 208.85 18.551 208.792 18.9467ZM204.455 15.9817C204.286 14.4939 203.653 13.4968 201.543 13.4968C199.686 13.4968 198.857 14.267 198.572 15.9817H204.455Z" fill="#0E1E62"/>
<path d="M224.355 15.7812H220.045C219.76 14.5836 218.932 13.9821 217.249 13.9821C215.281 13.9821 214.078 15.2958 214.078 17.7807C214.078 20.2656 215.276 21.5793 217.249 21.5793C218.932 21.5793 219.76 20.9779 220.045 19.7803H224.355C223.928 23.294 221.844 25.4043 217.243 25.4043C211.82 25.4043 209.704 22.033 209.704 17.7807C209.704 13.5284 211.815 10.1572 217.243 10.1572C221.844 10.1572 223.928 12.2675 224.355 15.7812Z" fill="#0E1E62"/>
<path d="M233.804 10.1572C237.461 10.1572 239.37 11.8138 239.37 16.5515V24.9769H235.06V16.7519C235.06 14.8368 234.232 13.9821 232.433 13.9821C230.802 13.9821 229.837 14.8368 229.837 16.7519V24.9769H225.527V4.98688H229.837V11.9826C230.576 10.9274 231.778 10.1572 233.804 10.1572Z" fill="#0E1E62"/>
<path d="M249.22 10.1572C252.961 10.1572 254.876 11.8138 254.876 16.5515V24.9769H250.566V16.7519C250.566 14.8368 249.737 13.9821 247.938 13.9821C246.313 13.9821 245.343 14.8368 245.343 16.7519V24.9769H241.032V10.5845H245.089V12.2411C245.68 11.1279 246.909 10.1572 249.22 10.1572Z" fill="#0E1E62"/>
<path d="M260.959 8.66939H256.648V4.98688H260.959V8.66939ZM260.959 24.9717H256.648V10.5845H260.959V24.9717Z" fill="#0E1E62"/>
<path d="M272.006 16.4354L277.915 24.9717H272.861L269.068 19.2632L267.263 21.1203V24.9717H262.953V4.98688H267.263V15.8392L272.434 10.5845H277.915L272.006 16.4354Z" fill="#0E1E62"/>
</svg>
