<svg width="205" height="16" viewBox="0 0 205 16" fill="none" xmlns="http://www.w3.org/2000/svg">
<path d="M107.198 0.263435V2.37578L109.637 5.3077C108.925 5.67846 106.876 6.90293 106.188 9.14212C106.188 9.15187 105.959 9.72752 105.959 10.5812C105.959 11.3569 106.144 12.3521 106.856 13.3571C108.344 15.4548 111.686 16.2792 114.311 15.2011C114.34 15.1962 115.155 14.9181 116.633 13.6156L118.023 15.2645H121.682L111.218 2.78557H118.691V0.263435H107.198ZM109.115 11.9521C108.73 11.4106 108.627 10.874 108.627 10.4544C108.627 9.98608 108.754 9.66898 108.754 9.66411C109.208 8.11278 110.979 7.36638 111.208 7.25418L115.037 11.7374C114.945 11.8545 114.472 12.4594 113.257 12.9765C111.793 13.6107 109.969 13.157 109.115 11.9521Z" fill="#0099CC"/>
<path d="M95.1337 2.688H84.4256V6.098H91.6358V8.69331H84.4256V12.4887H95.3044V15.0791H81.2253V0.263435H95.1337V2.688Z" fill="#0099CC"/>
<path d="M204.507 2.688H193.794V6.098H201.005V8.69331H193.794V12.4887H204.673V15.0791H190.594V0.263435H204.507V2.688Z" fill="#0099CC"/>
<path d="M9.88364 0.424416L6.51266 10.3715L3.04412 0.453689H0L5.25404 15.0206H7.65421C7.65421 15.0206 11.0545 4.7418 11.2154 4.25884C11.3813 4.7418 14.9084 15.0206 14.9084 15.0206H17.1817L22.2748 0.453689H19.3526L16.0597 10.3666L12.679 0.424416H9.88364Z" fill="#0099CC"/>
<path d="M40.8175 6.01019V0.263435H44.0519V15.0791H40.8175V8.78112H31.7583V15.0791H28.5239V0.263435H31.7583V6.01019H40.8175Z" fill="#0099CC"/>
<path d="M51.5015 15.0791V0.263435H54.6871V15.0791H51.5015Z" fill="#0099CC"/>
<path d="M69.6539 15.0791H66.439V2.89289H60.5508V0.263435H75.5372V2.89289H69.6539V15.0791Z" fill="#0099CC"/>
<path d="M131.902 2.33187C130.536 3.7027 129.814 5.55649 129.814 7.69811C129.814 12.9521 133.936 15.2987 138.025 15.2987C141.191 15.2987 143.927 13.4156 143.957 13.3961L144.001 13.3668L142.776 11.1667L142.718 11.2106C142.698 11.2252 140.961 12.6107 138.025 12.6107C135.478 12.6107 132.731 11.0496 132.731 7.62493C132.731 4.27835 135.395 2.53189 138.025 2.53189C140.459 2.53189 142.693 3.76612 142.718 3.78076L142.771 3.81003L143.952 1.42937C143.952 1.42937 141.488 0 138.025 0C135.585 0 133.41 0.81957 131.902 2.33187Z" fill="#0099CC"/>
<path d="M156.923 4.09786L159.07 9.33725H154.733L156.923 4.09786ZM152.108 15.0791L153.582 11.9033H160.285L161.831 15.0791H165.851L158.001 0.263435H155.626L148.264 15.0791H152.108Z" fill="#0099CC"/>
<path d="M170.603 13.6449L171.637 11.2593C171.637 11.2593 174.032 12.7863 177.003 12.8253C178.237 12.8351 181.54 12.5619 181.559 10.8447C181.598 7.41028 170.105 11.5959 170.178 4.70277C170.207 2.35626 172.408 0.0487801 177.076 0.102442C180.989 0.14147 183.652 1.65865 183.652 1.65865L182.481 3.92223C182.481 3.92223 180.076 2.56116 177.144 2.52701C175.476 2.50261 173.417 2.95631 173.408 4.2003C173.373 7.77128 184.843 3.73197 184.774 10.4983C184.735 14.3766 180.081 15.2645 177.032 15.2499C172.608 15.2157 170.603 13.6449 170.603 13.6449Z" fill="#0099CC"/>
</svg>
